<mxfile host="Electron" modified="2024-04-15T23:13:24.043Z" agent="Mozilla/5.0 (Macintosh; Intel Mac OS X 10_15_7) AppleWebKit/537.36 (KHTML, like Gecko) draw.io/24.1.0 Chrome/120.0.6099.109 Electron/28.1.0 Safari/537.36" etag="yD8kL0W1ogCqi-goAI8V" version="24.1.0" type="device">
  <diagram name="Page-1" id="iePR--2NlKOumq5kPcuZ">
    <mxGraphModel dx="2074" dy="854" grid="1" gridSize="10" guides="1" tooltips="1" connect="1" arrows="1" fold="1" page="1" pageScale="1" pageWidth="850" pageHeight="1100" math="0" shadow="0">
      <root>
        <mxCell id="0" />
        <mxCell id="1" parent="0" />
        <mxCell id="ssQ_9IG4hAZFRehCgyNh-1" value="Website Assets" style="shape=image;verticalLabelPosition=bottom;labelBackgroundColor=default;verticalAlign=top;aspect=fixed;imageAspect=0;image=data:image/png,iVBORw0KGgoAAAANSUhEUgAAADwAAAA8CAYAAAA6/NlyAAAAAXNSR0IArs4c6QAAAIRlWElmTU0AKgAAAAgABQESAAMAAAABAAEAAAEaAAUAAAABAAAASgEbAAUAAAABAAAAUgEoAAMAAAABAAIAAIdpAAQAAAABAAAAWgAAAAAAAABIAAAAAQAAAEgAAAABAAOgAQADAAAAAQABAACgAgAEAAAAAQAAADygAwAEAAAAAQAAADwAAAAAeOWEXwAAAAlwSFlzAAALEwAACxMBAJqcGAAACAVJREFUaAXtWmlsVFUUPp1pp+1M92mndKEbXWxKW3aUrVAwohBCFRoBQf2hJkqIBvxjIiHGn/4xUUxUjBXUGDUKiQYbaUJZSgHL0pSW0paWbnSZLjNtp53pTD3fDdOMdslbmJZAz+TOvLx599zz3eWsz+eDItMYPUGkeYKwCqhzgB/3FZ9b4bkVfsxmYG5LP2YLOgGO74Q7Km4YAiIpNiKbTGEZZAxOpjBDPAXr55FeF0YBulDy1epIq9HR2JiLnGMOcozaaNjeT4MjPWQZaqe+gWbqtjTQ/d5b3KrIPjqkQprJu6oC7KsNoPTYfMqI30TJ81YzyKTxUQZsXdQ32CpAtNsrBbBRp52cLgf5+PiQRuNHOm2gmAhDgFFMUGpMHvn7BQkeLpeT2hl0fXsp1bQUU1Nn+ThvNRc+SlxLU9hTtCrzDcpJ2i4EtI30UcP9C9TYeYlazTeoo7eahh0WRXIFB0ZTTHgWxUUupuToZyjRtFLsjP7BNrpa9z2V3/6WBoe7FfFGJ1mAgwKi6IXlHzHQAt6OQ3Sz8Xe63vArAy0T21SxFNN01PnqeQc9S4tTCiktLp9GncN0rupzOlv5qdgt03Sd9C/JgOOMi2hf/gnS+RnofNVRulD9pdimk3L10k3ohfzcQ7QoZQe1dF+jojO7aYjPvxySBBizfLCgXCiXEyX7qGegSc4YD/1ZnPVdecfEuf6uZI8s/pLssCk0g4ICTfRXxcezDhbo6trP0tU7xymFFaVckgS4f6hV8M1beGBci8od6GE+HxWaxtt6p7ACcvlKAmy1dQqbmGhaQQe2lbIC2UkaH1UWTa6c4nnY8g05B+ntLcW846LIbL0rm49kqXutTTTGH5igHWs+o81LD7OWPknVzaf5LF1mjWmXPbiUDgCZGrOOshK2UOb8zaTV+lNF3Y+0eEEh9XgTsNnaKByLr4sL2D6uohXp+2hZ2h5hjx1sKlq7b1Bbz03q6r8jGhQbnA+pEwHFCBtsDEmhqNB0MnGLj8xlry2Td5OGeXXS5doiKuc2YreKseGVySXJK9zDgFNj8wT/ux0XCc1X408pMWvEBCRELaOlqbsmnHEbu45Dwz3kcNrYho5wswtPy5dXCg1A4ZLi15MwWS3m61TZeIqVVCmboYrxv3G0QF5d4Z6BRiFUMGtrnGnQqGuEalvPiCZu8FeoPpYiQ1PFb6ghjgz+ERToH8oTESL8aK0GczzGnpiVnDwBNruF7Xmf2A19Q23CFe2y1PHR6XWznPALewwyW7x4ht3MI9hfdgOeIAnf6Geh0bxJEQzY6RplLd0iexhJWhpcsaVBADzbFMnnvHfgHrnGnLJFkQwYkQ8imIgg5YCxxZ9bcpgV3qvkwx+lhBVWYpIwnmSl5RrDFmr+TwgoV+BX1hdRrDF7vBu0rhLCGb7HplAJSV5hMO9hW6xmS4cFxY/LuG7hfspNfolNjnb8npQLvb+RY+hgxSssDzBrajWA/7zyIceyZhEz2x2DVLj2KAcll9mWv8UWwCAFL0WGuDW0fBuMASRvaTwMxYXsBLISI44B3JJF1xp+JjQ3ZcRtorVZ79AWjrE35r5P/9T9QJdqjk0boLhNku5BZsTNS+qvdm2B4YjUh+G/IstR2XRKeD5S+031nNnaQBX1P1FNczHb63BakvqyWO357MTYRweFYwF31pOyErZyOmkVZSdto3BDAmdazkn25sBHFmAt56FWZrxGdW2l7D7Wesqh6tpq66Cqe39wyHdCAE2P3cCafK9wHwPZl4aFsLFzAsJ9rC52wsqM1yk7cRtVt5zmHWeVJIMswJj19dnvUpv5JjV1KdOS00kF/nBZL9Z8Jc55iD6G3dXdtDrzTZEsDNCFUDqneaA8fyt7TyT44M+ncSLxCsfHUkjWGUbaFD6uGsUlRSikcZGpRENAkZv8IuUkF9Dzy46I7sitFa45KjQ1UrpIBEjVK7IAYzQoLm8DFqgefGG7n7/1hWgxEQtp/9Yz7Np2UIJpOZ/j7eL8ltz4RLISlQ0YYWJS9NOeMs3YNaIzEFJNt1v/VjSuLDuMEbDCcBGhwGaa4FKClLqV6CsbMFYYAXlY0Hz0n1EyhiQJfx6Bg1KSDRhxMcioIogQDBR8RQaniJAQ5RqlJB8wrzBoJhWXGBBjslupJMvh7o9f2YBR1xlhP3g2AMOtxJFSQ7IBY7CZNk0YE9lLPbufahQW+CgG7FkaBSNvE84vyKwgU+kpmyLA2FbhwYmefLx+jfMLmrUV9uNieEjgPK8DdQ+A8+tilxN+tBpStMJu0zSTiguALVwUl5rYn2pSlAGeBdNk5C2N+FktKQKMfDDKKzPlUweydkbppau/Xi1eZVoa4dulmm9EaWXvhuOEDIU3CC/NIB5GhKThioXSLKenbJLeAPDs4HmN5NtGfgUBgTk0953WEg7gy0Tw3sf+7v/TM559J7sGQBPXfhOilou3gtI48+HPr1g0c13pZNkh8VbPZP3k3FMFGAMh24g8V1biVrHF3UUxvIMFBwWxq4VrUSNcQ3JwLcnJ9SgfDj4Q6gEgnIlgfTTXomI4IEkQgQn44q2d2rYSfmnmF2rkSXxYpBqwpyDIMUfx6xFxxhxOpy5g9zNRFNX0nOkEMJgy1HfFi2kMHnoAL6UMsLsKDdxlqRelVlQKldSNPGWZ6lp2AmAqRriPWk9H3y3RpntuNv9TpKVnU2C1Y88BVjuDj3r/uRV+1FdIrXxzK6x2Bh/1/k/cCv8LozM5q2CykPEAAAAASUVORK5CYII=;" vertex="1" parent="1">
          <mxGeometry x="70" y="410" width="60" height="60" as="geometry" />
        </mxCell>
        <mxCell id="ssQ_9IG4hAZFRehCgyNh-3" value="https://vozamigo.grantstarkman.com" style="shape=image;verticalLabelPosition=bottom;labelBackgroundColor=default;verticalAlign=top;aspect=fixed;imageAspect=0;image=data:image/png,iVBORw0KGgoAAAANSUhEUgAAADwAAAA8CAYAAAA6/NlyAAAAAXNSR0IArs4c6QAAAIRlWElmTU0AKgAAAAgABQESAAMAAAABAAEAAAEaAAUAAAABAAAASgEbAAUAAAABAAAAUgEoAAMAAAABAAIAAIdpAAQAAAABAAAAWgAAAAAAAABIAAAAAQAAAEgAAAABAAOgAQADAAAAAQABAACgAgAEAAAAAQAAADygAwAEAAAAAQAAADwAAAAAeOWEXwAAAAlwSFlzAAALEwAACxMBAJqcGAAACiJJREFUaAXtmnlwV9UVx79hkU2Qxci+QzBRFAQKVSCprSh1Q7F2UdSif6hddLqM7dTutp221u7iTKfSDtROHVk6ilawChUtm0JlFbBACQIqCrJGlvR8crjze/nll+S+kPhHyJl5v/fefffec849yz3n3F/eg9eWl+s0gmanEa8VrDYx3Ngl3iThJgk3shVoUulGJtAq7JyShM/sLI2/VWp9ZpV5q21o1ly64ft+8RwL4AAXOE8F6sxwsxbS1fdJo66TPvMTI6RL7WTkGbaJ90p9L/SLZ9pqA+YGB7jACe66QgS63FNfeofUY4i0dJbUrpN0y6+k8z+euy+tED35u9K546SF06VFf/Jn2mpaLOZkbnCAC5zgrivUaa2GXiZdeIUTsHiGtHqBSe4e6fIvSWNulNb/S9q1STp6xFWwzwXSkLESUfszRvy6hU7uoX3SJ+6Ubp8mvb5Y2vaadPBd6Yw2UtdBUuF46ayu0o71Nu7X0r5dPm70ZGn3G443LeN5aZOHHudKN/5Q+p8RN/sBQ2dMBBj8UYnFQGWT9nnkgDO09Alp/zuht9/bny2NvsEXJOkLThy3BfiPM7Xp34kxedL190ss4uPflt7ckPgW8ZiKYVTv5l9IHxyS/vJ1qexgbgwtWkkd8t2ZHX5f2muSKT+Ru29oxZY7dpPadJBYoPfflo6Vha+V763aSTf93DShrTTzq9KBPZW/1/QWbcMtzpAmfVPiPvdHGWY7dnfVa54wDgh9t9RX/703KzPbpbdJ6Dt+8RyABaEvEmNsklnmRr1ZEICFnvtjpyXQ5F9q/42W8JW2kkMukeYYs1te8YnbnGUSf9ClecBsb+3z0ual0ttbpOPHMsiRWs9Cqehj0sBRpiGH/Ru2+sZys+kX3E7RhgAwmd9fGjRaOu9S9wVIfebXpMNm+0D/EdJ13zJzeUmaZ5oXAzZt7VBgjOJdX30qwyyjim+T2puaz/+9E8a2gT3CLMQf+8DVOtjmwfek5XP8Yjz98cKDx/Dmqow6o0VtbTHxA9jy1pXSy3+VLrvLcN4q/eM33p+FX/m0dNFV0qYl0kZjvDaIYnjHOle3ohJDYExjk8Duzbb6JjVWfs4DzlzvodI5Jpm2HY3wlsaEqd++3e61d26srN6LZ0ovPSZ1L/Crwzk2RztbqKPSob3SW6Yp21f7QvQb7nv2LsMZABWHJkwBGmMgWqUhZspDPvlj99nU5S6BqQ87w4/fH4Ou7n0+baaER3/0bpe68qTP/VTq1EOa8RWj4a24uaOdFhM+/weXRFGxT466sQf3Os+JiUOZvlf7fPMBRY4LnAA0oBnQFMss46IZpvP6RdI726QR1/DmsOFFUzVbbZxRQ8HAkY4DXAGgAVqgKQ2kYpiJVz9nNjrAPLOpOIB94oy6Dfb3hvhlbnCACwA3NEBLWkjNcOlaR9FtUAbVnlILAU/ukZnW+ntibnAECLhL14SW+HtqhkNoiBcOcGS/e+jwXt93tjVwBAi49+8JLfH3FvFdvSd7JJCMhAgLc4WOREedenr/8Eskxb4KsA+3bO3P4Ze9e9ms8OZ35sZPBAi4Ay2hPeaemuEufXzavSftiTeScjKfbBg6wQOIPdszX/buzDwTloaghFYSAsLGbIaZO5lCBluGlqBxmVlrfkrNMOFl2aFMlsIq5/eTVj1dFRFB/toXLLKaXfUbLQsezrQPmygRtBAjZwOh6rBPegSGBuwwLSE8hZatr2b3rvk9lQ2z8aOmxMwnjvnEpIIwvSUHYqKmsgM1E8BXcuWxUyzd/IFvNdkjmBsc4ALAveafTgs0pYFUDI+7xZCdyMTCILrgcg8Dg/dOIkfCPS0ogZnRn3JNSH7nue8wL/sse8KypB3ZX/29dJ2bDCYSgJgcWsbZ3GkgmmH2QhKIFXMz+efZfT1jIYAPEVASOc4JabQzj05xgNC0sCTZQyqwdmxy1PXSndMtEbi68nfemGPlPGnASAmcADnwK383msaniwGibXjszS7JZbMdIb/Ft3lgDzG54ClLHZNwzTes8mhasn5hpnXBNH/G04+9SSqZ6hkZCUESwMFiULlE9QFoocJyiY2b9b2Kplp/oiSc38/tZ4WtaNgSyF64lvzNPWutmKwDtSk8evOWVXuz9eDg2H6CFJO98N7g6n+R4+UbNTNo6mdmkWtMcnx4jmK44GJXWRKFANgOUlj1TGjJuif2zfClt9kzqeTxo6Gl8p0iARCKdf6W+QUXOPEJAaAJc8Jjx0CUSuNYCBhYZYBCHrEsiXgu26UPif3Iaz1nZgvpVmBOy+zvyZ/x1QOOOx7xLYZqCd52wAiPj8mDcwG4KARe8WWnIdDEHRrJrWuDKAl37lnZg7JfooIbX65+eqoP2BgFAEo5OLA/3+MlHUahjvMe8nn5vt8kzx48/3fVz8kXKpjg7n1+ph/enbw4BqIkTPiXjKTwujAC0dUBUqVWxVUdUOrlSgPMC+4QTzMW2li0GIiSMPWpZAiICvIeUsQYRPXVB5zgpmAfgPdkATC057pHMYyjwG4DcLJAiDfx3viVDWNP5Y4UwQluaAiAs8vexsK37HsUw5ReKczhqADsjSMTSixTfmnBg3nImEMxH53+l7nBAS5wgjskDdDEtgmNMRBVxGvTXpo6zerNW/14IxyvdB8iTbjb90DUfPMSs0mrMuI1qVCcCrBfM38fc5CDxvj+TUlnviUcO18/ObNtfRz7wPCjd5laJ3Lm6nBHMcxgIpoJX7Bw7kk7/ftj5emoZ1EsZ2sIzoNSLvE1XrUixLQtpSagBk0gQwhKUTCcMuCktq3yhIWifRJKbrf6mkVf1MWTMUKyT/ZzNMMMLP68763rFkrPPVLVS0M0pwXYFET3skojpw6sPGOoaYdclvkATgeHX+X17eB8SBZYLGrNaFX2Xs+uwaljUYlHWoumM1McpGKYKUdO8gwFleU0AEayCQqosT2kVljsSQILwrEI44CLP+sREuPZ03FEaAP7bC5gPEwyjvPiF2d4MpOrb3VtqRlmIs5uSRzY/NkDOdv97wqPlavbmyFw+JV+hdLM0TIvHJAYVGfzSBONIVMib+YIZvsaO1A3qXJGnBbqxHBAAsMVZ0NmdxCGZCjn4LS2rvKiQEg2wpjW5gA5fwIIE5PFOdo4aq1IEIb5VsgJI5rCQm40f0DiX5dqJXMDp8SwT+HZD/kyNssJAXt2q7ZGpEmQEBMJ1iaNrgNd+mw/LY3pUEbCjrFp/lFQXdIR6Ii51wvD2YiQCIwXjvMEHc/NaT6HZxCeBBaKXJvyDR6Zk4QNZiIVFZTyZM/6eW4QhpOkwSxlIEqy2B9Ojj+1ACT7nBFxUrh8rvTas5mzY+9R/78NznAgGRv/yGRjfFKGKRYDRrHlbFsP4+r7/qExHAjv3Mv+7fNFf3v2t5XTztCnIe8fOsMNyUzM3OZeTi9oYrixy7tJwk0SbmQr0KTSjUygVdj5PzEtgR+MXDGgAAAAAElFTkSuQmCC;" vertex="1" parent="1">
          <mxGeometry x="70" y="570" width="60" height="60" as="geometry" />
        </mxCell>
        <mxCell id="ssQ_9IG4hAZFRehCgyNh-4" value="Cloudfront Distribution" style="shape=image;verticalLabelPosition=bottom;labelBackgroundColor=default;verticalAlign=top;aspect=fixed;imageAspect=0;image=data:image/png,iVBORw0KGgoAAAANSUhEUgAAADwAAAA8CAYAAAA6/NlyAAAAAXNSR0IArs4c6QAAAIRlWElmTU0AKgAAAAgABQESAAMAAAABAAEAAAEaAAUAAAABAAAASgEbAAUAAAABAAAAUgEoAAMAAAABAAIAAIdpAAQAAAABAAAAWgAAAAAAAABIAAAAAQAAAEgAAAABAAOgAQADAAAAAQABAACgAgAEAAAAAQAAADygAwAEAAAAAQAAADwAAAAAeOWEXwAAAAlwSFlzAAALEwAACxMBAJqcGAAACWpJREFUaAXtmguQlWUZx//LbYUFWbmJgIAEykUBuYgiImopomYahhFppWU1ldPFyhobtNKxnNFuThdtrFFwskUN8zJUKCoDIfdAkNvKctPlJnIHpee3D1/f4ezZ873fOctMs+wzs2e/837v7Xmf2/953lPywLVHjugEoiYnEK81rDYy3NAl3ijhRgk3sBNoVOkGJtBa7DSr1VKPDU2aSl37SaefI3U6QyrvIrU+RWp+kvThB9KBPdL+3dK2KumdNdKmFdLGN6UjH9bjJrKmOi4MdzTmBl8pnTlSOqm1r7jrXWNqrbR+sXRwn7e1aGkH0F5qf7rU53ypxAxs705p1Rxp4d/9ILL2W/TXemW4Y0/pos9KZwyVPjgsrZ5rzO2VBlwqNSs1RmZLb87KvefSMtOEs/2Q+l8iDbzCx8+eKm19O/eYQlrrheGmNssoY3TI1dLhg9Jrj0tLZkj73vMtzZ8uXf5Vady3TOJtXHoqkTp0l5qYVKuNIdS7cqHUuY9Lue2pLvVew6R/V0hznjIzsEMslkqKTR7KzCavvdM3uuxf0qt/tg0fZTRzc6grak6fTr2ksd+QYAras0Oa8bC0Zp50y2+l996R1r4hbV4pDbIxA0zi1ZXS0z+R3t9aM6Tgj6IYPrW3dN0P3Qm98JCrYNJOYPLmX0i7t8dSG3adS3vq91za2ZLsNVy68nbXnmd+6g4uaZ263tu5F0btTR3HT/ZNPPGdMGZZadBYU2Pz3k/9SFo+U1rxqj3fJR3a7yaRzSxj1prkp37fVfpTJmU8fqFUEMMnd3JmDx2Q/mKb3b4xfPnyzqay5rEzVRP7RWXb2ru6aPsGaYppwP73pevtsNhDIZSaYRwUNtushfRXW5hwk4Z2bjHGbLNtOsSj8NAderjtxq21n7D1inukps1tDyZxNCUtpWZ41CRXKZxMGsmOuUUabra6+CUHHePvlvpdbGHoQukGey5tJS0wb55ESBp/geO7YEJS79rvUzGMFIZc4572LYupoXTJrdJQG9eqrUnRJIy3RUPGfVO65g6X9vSfhTsjPDje/rxPGmjpHroL72cKGk6ACuLsK4+Fjxn6cXdGbzwTj6v6j/TIba7GNXG4UjrFYOeEe6Xnfu5hKmmFmY9KHzlPGnmjxGGFUrCEO/aUAAELnjNAsSts+q79pdE3S2hD9iGBl6vXuVTB1YcPWSzvLV38ubC5cXTspc8FfnBho8zuQzsOHuebmv9s2AhwMiqLk3rxl8ljUPV5T0t9R7t9Jo9wm0fjBl4e0tv7BDGMNyQRWDffs5uQ6bEtPPrzD3qMDRkDw/ss7Iz8dEhvh6PEaBwfSC6Egrp16edZz8rX6p6SBbGpYZ/ww3l3rfSHL5rKrq57TPYbwMdCU1NMp1237Le5v6+wPZWVexqau8exrSaDZCKLoVwPuM9Frds5GOjYM36LKk+7R9qxKW4LeVr0gjTiBs+WXjbHlERVS31vp50lbViW1DvQhoFyxFwcRS4ae7snAnjLX3/GGP2xhA1ffUeu3vnbQFJr5nqMDlFT9sTh4vBCKEilCRmkeuS5hJkxX5Cu+LpnSGRLPQZZCjfNvTEbwNZff8IBCsWAtETO3OpkqZt5+RDaWhluAkEqDVNUJboN8OWpWFCawabxkhApXSZx6lDLNg4yon7emv/z7UU+L7ZMzE4iwiQqHUJBDAP7qF4AHrauP1a18cQH9kr9x3jmI7N1iByWqgex9nyDgGdavFz8oiMkDisfcTib3zJHFChh5otKSfnm5V2QSrPxbRu8wJZtx7ybPcXUfYg08X4v8ZDCUaaJwgzFOYA/pnDr7w0SXu9Sz7e5TSs9HockCDVnXJJvtvhdkIRrTrAsHpT9BOJBymBbEoRd1dLMRxwJ0ZdYyR9Y/MKJdig3eSWDBKQuz08dC+0pP80cph12PsJBUjsLoWCGAf75CDDPXz6CiWfvc1W97EseyqhOzvqTqb9By0yKwlkIw5R+Q+FukEpzwkgnH330y9K5V+XrEb/buFyiSkI6yJgb7/VMKu4RJxCAiiQCpCRpQTRHEMNbVptqdfbaVTTwmP9mP9hsVJQ75l0dX7D9l/8oUaMiAky0GN6ua9x59zbpV6b+S2fEbbmeKOoTNql8hlAQw3hMQECPwbmnbGcLNi+VgJNpidz2yR949SLKbVnnstvMyX3ek4l8AKT7QB8L4gqhIBtGBSm9cjuwek7taaNaVJoKSOYsHNSjX3E7plhAfZtYj12f8zEv5FM0yFXg6z3CMQFXNCEUJGFyV0AGDOeKd4ALKFc92t8kf8IckoXZRc9Lv5kkPXyT9M/fST2PtmfPgnc+a5QjvND7qCCGWWjpP9yGKbNmE0U1iES+GEJaSJZqRjQXycSWVRLvsonrGEyJAwqlYIZBTFxygaWzpUxaB3HixRAHh6QjZqO5Dtr80aFGbS0M/RH31y3wEm/UnvQ/mGEm4mILZgEOmbRnp39LitWZY3I9Vy0x7G1JA1cyEXU725OI9fYuk6ivAXlfeSyzNfm5WXKXuAfAAbg43KAh2JqsCIoSB+JhSE7qo2p/ksz3v9Q9NGGOQj8ZE/PPmxb3x9Y5lPl/M8i7Pm4PeUolYSZ83aRcXen1qsg7AyWBltwGFkM4HrwxUkOtS1s6U1O+G5eWQF5XfdtCoJkYF3dpKTXDhIbp99uG7P/4yUdvEI64Y4nSx7SbyOzPvGRlT94pPW5oDMmSbXFTUVNZuct/IUCxAfCSllIzzALkuhV3u71NMKSEpAn8wM+WCZg7ZIP9RhvcvM/n4iL93HFe7qWN3JzS0c7NITPV7lMQw0yDSlVMtjTPNjTpAZ+4pMRidY7w4W/DPynVIlGqLFy6URDoe5GvxeUdvwcplApmmAWBnCQB2DB3ThCbLYZqSkbmlFbMMhsus18OfM1LS/gNbDlNFTTXPopimAmRABvhJwnYFHY8YryFr6PoK9ei+doo+JMHtyq3YoGhLConcyvcntPeVOZap6hfAGRPSFjiaoVaFGUafsSyaq6rZAROssdE3wEtJAIUByNgA9ChGMjPmuqL6pXhaFMwDibm3gcwQrjZYU6GOA7eJoTRBpNt2nvFkdSQrIjqClXLJS/V7693or0dF4b/N7kx0KWvgwfuc8l7UXVsEweH1Kl14XFxRFXLrG623A8jmqO+/5u1HD9CijDA3/8LmQxOLGpkuKHLu1HCjRJuYCfQqNINTKC12PkvOQQaEEBUzIgAAAAASUVORK5CYII=;" vertex="1" parent="1">
          <mxGeometry x="70" y="270" width="60" height="60" as="geometry" />
        </mxCell>
        <mxCell id="ssQ_9IG4hAZFRehCgyNh-5" value="" style="shape=image;verticalLabelPosition=bottom;labelBackgroundColor=default;verticalAlign=top;aspect=fixed;imageAspect=0;image=data:image/png,iVBORw0KGgoAAAANSUhEUgAAADwAAAA8CAYAAAA6/NlyAAAAAXNSR0IArs4c6QAAAIRlWElmTU0AKgAAAAgABQESAAMAAAABAAEAAAEaAAUAAAABAAAASgEbAAUAAAABAAAAUgEoAAMAAAABAAIAAIdpAAQAAAABAAAAWgAAAAAAAABIAAAAAQAAAEgAAAABAAOgAQADAAAAAQABAACgAgAEAAAAAQAAADygAwAEAAAAAQAAADwAAAAAeOWEXwAAAAlwSFlzAAALEwAACxMBAJqcGAAAB41JREFUaAXtWglsFGUU/ubY3dltq1BSrnq0qIiC1gKKEUEqojEaxSt4EO8Yb8UTr2jiLYq3YjziEUm8EzUagi3KJSgKKgJiFauFYguVXuzs7syO7/+3s93tzs4eM1sI9CWb+ee99//zvv987/0rbJ8FA3sRiXsRVg61H/CePuL9I9w/wntYD/RP6T1sQFPgyCmcHBnKlFsROOPJHGsBeutfaJtzJBDqyLmukwqOAYullTDCQaiLnsjeDm8R/DW3QTnuaqo3J/t6Lmg6BsxsMCI7EVzwQE7myMOroJwwC+ri52i4QznVdaLswqYlEOLc3fFg7aMQ9xkG34TLndifc10XAOf8TV5Bq18ErWEllJrbAUHKr5E8au0ywMzW4MKHIQ2qhHfsBXmYnl+VXQo4su5zaE1roUydTdbT0ugD2qWAafFDpbUsDx0Nz+gz+gAu4BLg3DctE1149XvQt/8J/0l3mayCPl04lgyIxWUonWsNOrTqHXTNvzg9CEOHWvcEis6bB/mQqdB+r02v64JEcJrikYbQdKw6F4KQugal8qP4VG0nj0rfuja9uZIPA+7bRDrr0DHvpPR6LkgcA7azQQiUEpAGhNd+iq53L7JThemitj0zAfrf39nqOhG6tIatTTB2tkJd9jK81TMglo6wVurmqstfQbSrldby3bZ6ToUFBcyMU795GohqdPTcaW9ruBOhpc/zJSAOOdxe14G04ICNjiaEVr4B39GXQNhnuK2p6hLyq8M74Z9auB274IAZQh4RkfvIIiQ74ktg+TxaAufTEqi0U81bVhDA8sE1kCsnxY2Ktm5C+Mf58B17FYTAoDjfqqB+M5f8kWjMx7ZScMhzHzDFusWXfIDiSz8EPP64ecHaxwBvAMrkm+I8q4LRvgWh79+E75jLIJQMtVJxxHMdMAvqxaJBEEsG8xE1rYs2r0fkl0/gO/56wFdisi2fzBGB5KF4+RZLuROmu4DJgWBGRjbWIlL/Na1ZCv2IZ1Lwq0cgBgZCmXitybJ8Rrf/gfCa93lGRPAPtNTJl+kqYDYNxX2HgwELLnwI4oBympqXxm3TG39AeMMCnumArMT5VgUWVMBXHJsRVgp58twDLMpQTryDB/VafR33ibW/VsRCP5KZpLJRLhlCmY4rTJblU2/6BSx85Gue9gW3yDXA3uoLeDDPgnqTggsfhFRaAe+4mSYL2p+LEdm0LLYLJ3REXCGhoH5FaSDaD9ju7ha5BFggZ2E2tC2xUTGNi6z/Alrj6pgjIfR8SmWZjtIDkzrCrJP41Bq+je0FlAqG5E0U5V3usSLvJuj0OWI6pKGHUzD/CLWSHCaytSwNHgnvUTPiX4hs+BLa5jXwn0juZkJHxBUSCnyjY3vBeJsQM0E/U9EVwMzh11vqaWf9IOV77CjStv4KhQcFPSEkW8vSkFHUWWen1ElkaBsXQvtnFe0PmTsnsV66smPA8siTIe8/HsE6ciwomE8lSuPQFJaHjeEzwZSHf/4IevPGrKKjIK1lqexgeKvOM6vn/XQM2D/tHkR3NCJMmY10xM5UveV3+Kfd26NC7iPLTcv7VcMz6tQevkWJzRL93/W04zsPKhwBlismwnPQZATZdYketjC1m0UjH1r5OoEbC2nYEXG98A/vQv/v7+7pHmdbFAzqnMcgl1fBc9hpFvLsWY4AK2x0O1sQWvFaxi96x0ynZB2lcWik4hSN8EjKM+L4pGAjLk8osOBDb22gznE2ynkDlsqr4T3s1FiAT3dLdiQfNAVyxbE8WceSAYnERj7a0QzWebZE9ViY6amcCHnEZFtVO2GPC2SnZSFjO3M02IbQspcspMksrtu+lUdByRJ6i9DNI2VFAqfTxlQ+FvrmH1NUTAbrHP/J9yFw5lzuhZl8g5IGPHmgqSYr7TMvwGLZofw4Yf6uobalbZwJpP3Gw3PoNOz8jI6VNAap1GksBcQ6pvOtc9O3R/XZuR6Y/iydDOOS9LSGFdyLS2JavOQ1pZlXxYxXFz9r0WQyi+lGgzugLn85WZD4FmpHaMkL1IlnQRw8KlGSUg4tfQH/3Sah9RaB/9pfrInpZHBgzIZyBiwOZC7hRbRRvQqjq8Vsx/LJjGcgGJhMN/3qEuo86sRC5rOYkTkD5tebdB8cXJT5bw7cdWQzgYHJQEbXNoS+fYVuEi8E69RCUU6AheJYWBda9TaMtkZbm8QBByTMhG22uqYw+PVT3fmsO0yW68+cACtTKOVCqRe17vGMhijdGUqVgciSjLbNtJO/xf8VUIh8FjMja8As1aIcdw1PvUS31dtCEIrKyOgrubsZ3fGPrW5vIe/MAuWz2LeyBuybdANPufDUS28re70rJ9wMyD4KKCgZlyPxfBZdobJkoNv5LGZKducwpViUSTfC6GyG98hzAPazId/E6yhD+TGiLb/ZaKUXqRR5sb9BFJ3/BvQtP6VXJIlYWmEr7y3MCjD7t43gCUDw+uE/5f7ebaS8G6Eu7iCkCLJksHwWCyx842cClFzIROx/YtH2pkxqXF7Q69KsLOhjpazXcB/bVbDP9QMuWNfuJg33j/BuMhAFM6N/hAvWtbtJw3vdCP8PYWJuLB0BH8oAAAAASUVORK5CYII=;" vertex="1" parent="1">
          <mxGeometry x="420" y="410" width="60" height="60" as="geometry" />
        </mxCell>
        <mxCell id="ssQ_9IG4hAZFRehCgyNh-7" value="" style="shape=image;verticalLabelPosition=bottom;labelBackgroundColor=default;verticalAlign=top;aspect=fixed;imageAspect=0;image=data:image/png,iVBORw0KGgoAAAANSUhEUgAAADwAAAA8CAYAAAA6/NlyAAAAAXNSR0IArs4c6QAAAIRlWElmTU0AKgAAAAgABQESAAMAAAABAAEAAAEaAAUAAAABAAAASgEbAAUAAAABAAAAUgEoAAMAAAABAAIAAIdpAAQAAAABAAAAWgAAAAAAAABIAAAAAQAAAEgAAAABAAOgAQADAAAAAQABAACgAgAEAAAAAQAAADygAwAEAAAAAQAAADwAAAAAeOWEXwAAAAlwSFlzAAALEwAACxMBAJqcGAAABZVJREFUaAXtWltsFFUY/vbW7ralXXpDRIUaL0lpAcVbNVFQn7DWRosVfGgMaHwwapAH0QdjYiAhUR8ENSImSgSaaESLUSPRPqiUeKmmpUhCsDUmpVDa2nbZ3e7sjOc72xnX1A2z7J6plvmTkzmX//z//53/XOZcPINVzxu4iMh7EWGVUF3Ac93jroddD8+xFnC79Bxz6Aw4+fOwx4PgffWo6HwCpa82z1CUbQZlUBZlQsjOF/lzFiSB1qHkmdXwX1stxRlj0ZzF+msqEKi9BOFdrdA2r8bky18j9nEvYOT2Y3jhHibQ+5eh8psnEX6rVQIce6wdU139OYM1BVAWZZKog7qoMxePZw/YK4C2LEfld08h/OaDMDQdYxv3Y/j21xA70APouXnABCu/QhZlUjZ1UBd1UjdtgLAlW7LfpaeBlmxaBf+VlUj0ncLohn2IdxzNVmf2/KIbxz7plaHw3qVy+IRfX5vq6q90IvbBL7Yb2hZgThwlz90NjqtE7yBGH9mL+Kd92RuehxpsYIbCe2pTwHe0QNskxvi2Q2KMix52HrLVpcveaAGSOkbb3sfZO3fOGth0LGxw2kKboOuQNqYzZIjbAuzx+xD7qAfxz45lEDN72bSJttFGO2QLsB1B/xceF3A+PBW4ZTEW/P6CDJRX9GiDjM9vb5Piw++sk+nip++Q6epjW2Q6cPNi+OsWpuJChgqyNUtnq1gfHE+tydMVObOf290FrX9E5sS/PI7kwAgS3X/I9Ln3voenwAf91DiMqaTkDTaLX0oFpARwcmAUEy9+YZmbONwPBpOi+34yo/LLJSWdWDdw3WXpWXmLu2M4b035HxU0ex4OitHkc1698xqnPV+8sQFV3ZvhmVfoaF9QD9jvRdnOFjEJLfoHsNC665EUs7YxEZdl5IHgVU1qNQgA4bcfQmjtCrm+mmACN1wO/9VVMGdrrr3kIa9q0OoAi/HJTXtwTS3Gt3QguucHEy9C61dCn4zL7R4zWUYe8srDBIVjW8k6TBBFbTci2LgUkV2HxY/EEWalKBQAfyq4vzUiU2au5PGJfXax+CtjXVWkzMOxjl5oJ86AYzVw0xWW/UGxgfeWFFrd2SwgD3lZh3VVkTLA+pkIRpp3Qx+awPz9beC4JRWJ7qydHEbiyICFiWXkIa+sI+qqImWAabB+etIC7b+mGr4l5Qg0LJnhXZZZYEUdlaRsDJtGE8jwqh1AXEPJs3fJs6doe7dZLL/RvT8i+qE4lxI8qkmphy3jp4EEll2Kqc4TYlc0YRVZEQfAUpdyD1uARGR0/R54igvSsxyPO+PhNFjpS1FatmNRxwE7hiyDIhdwhoaZM9lKPOwXs3H554/LwJYKPrBcxku3N8mG45floYdXyrTJ669fCN9VlbKMMlSQmllaXHoZf/59ZWrEEzJtROISA78sN6aXIotX3G4gaaTqChkqSAlgjRdtre9a9sYP9oHBpPQDPual85rp8gMbTPa8fpV06bxamGdhLuCMDerA8UtG3ecryMI2W2NYn4iB1yIFt9bIO1hu3rkTmk3yVpcg2FQnH71wL00b7ZAtwLyHDbasEMLrULq1EfNeWoNE1wCi4jlC/OBR6MPq9q/pILyVxSgUpyghcWLC+yuP14vEr0OY3P6VeAXwczprxrgtwLw6iYhXNAx8qUPgPKYpE+upsa0RU9/+lvK8glcBnvIiBMVtP18hFNxWA4847+KpSIRPHcSrHu346Yzg/q3Ak8sDcX/tAgk82FQv3n1UiEcnSSChy0synlzkQlyW5P1SwCsvu7WTZ8U5WI+8pNP6hi5YtC0PZ5JOxZMMWw+Bf0n0Ar1P43IlyvAuKpNe5NsNrWcwV5Gyfk4ezosFDgtx12GHG9xxda6HHW9yhxW6Hna4wR1X53rY8SZ3WOFfaLUW/IHuxQAAAAAASUVORK5CYII=;" vertex="1" parent="1">
          <mxGeometry x="270" y="410" width="60" height="60" as="geometry" />
        </mxCell>
        <mxCell id="ssQ_9IG4hAZFRehCgyNh-13" value="" style="endArrow=classic;html=1;rounded=0;entryX=0;entryY=0.5;entryDx=0;entryDy=0;exitX=1;exitY=0.5;exitDx=0;exitDy=0;" edge="1" parent="1" source="ssQ_9IG4hAZFRehCgyNh-1" target="ssQ_9IG4hAZFRehCgyNh-7">
          <mxGeometry width="50" height="50" relative="1" as="geometry">
            <mxPoint x="170" y="460" as="sourcePoint" />
            <mxPoint x="220" y="410" as="targetPoint" />
          </mxGeometry>
        </mxCell>
        <mxCell id="ssQ_9IG4hAZFRehCgyNh-14" value="" style="endArrow=classic;html=1;rounded=0;exitX=1;exitY=0.5;exitDx=0;exitDy=0;" edge="1" parent="1" source="ssQ_9IG4hAZFRehCgyNh-7">
          <mxGeometry width="50" height="50" relative="1" as="geometry">
            <mxPoint x="355" y="439.5" as="sourcePoint" />
            <mxPoint x="420" y="440" as="targetPoint" />
          </mxGeometry>
        </mxCell>
        <mxCell id="ssQ_9IG4hAZFRehCgyNh-15" value="Google Gemini API" style="text;html=1;align=center;verticalAlign=middle;resizable=0;points=[];autosize=1;strokeColor=none;fillColor=none;" vertex="1" parent="1">
          <mxGeometry x="580" y="425" width="130" height="30" as="geometry" />
        </mxCell>
        <mxCell id="ssQ_9IG4hAZFRehCgyNh-16" value="" style="endArrow=classic;startArrow=classic;html=1;rounded=0;entryX=0.008;entryY=0.467;entryDx=0;entryDy=0;entryPerimeter=0;exitX=1;exitY=0.5;exitDx=0;exitDy=0;" edge="1" parent="1" source="ssQ_9IG4hAZFRehCgyNh-5" target="ssQ_9IG4hAZFRehCgyNh-15">
          <mxGeometry width="50" height="50" relative="1" as="geometry">
            <mxPoint x="510" y="460" as="sourcePoint" />
            <mxPoint x="560" y="410" as="targetPoint" />
          </mxGeometry>
        </mxCell>
        <mxCell id="ssQ_9IG4hAZFRehCgyNh-17" value="" style="shape=image;verticalLabelPosition=bottom;labelBackgroundColor=default;verticalAlign=top;aspect=fixed;imageAspect=0;image=data:image/png,iVBORw0KGgoAAAANSUhEUgAAADwAAAA8CAYAAAA6/NlyAAAAAXNSR0IArs4c6QAAAIRlWElmTU0AKgAAAAgABQESAAMAAAABAAEAAAEaAAUAAAABAAAASgEbAAUAAAABAAAAUgEoAAMAAAABAAIAAIdpAAQAAAABAAAAWgAAAAAAAABIAAAAAQAAAEgAAAABAAOgAQADAAAAAQABAACgAgAEAAAAAQAAADygAwAEAAAAAQAAADwAAAAAeOWEXwAAAAlwSFlzAAALEwAACxMBAJqcGAAACilJREFUaAXtWntw3EUd/9z7Lne55C7JXZ5N0qRtWjpQ8YWP+hYVdEZBpUIFRcGKM4qgDirFagcd+UOqIoOoOAUZtQoKPkYdRBR8gNpppTRt2ialvTS9y+uSe1/uLn4/mzl6Se71u1ynnTY7s3N3u3u7+9nv7vf7+X53dc+u2juL8yjpzyOsCuoy4HNd4ssSXpbwObYCy1v6HBPoIjjGRSUVFpgajbBfVAP7OhtsvRaYmk0we00wOAzQW3XQGXTIxDOSZ5GaSiF5YgaJ4SRiA3GE90YR7Y9jdub0cyDdUpiWyWtE05VuuN7mRM0FNuh0AiqZQfzFpACSfHIG6QhBZjCbmoXBpofOoofJZYC5zQyLZC4KUzqWwfQzIZy4P4DI3liFy176bxVJWG/Xo/2zzfBsckNn1CH0XATHvjGiPmMDMQFXeuBsC2ODEY4LbXC+xgHXO+qglwU5nUmzhI0inb6f9MC20oLAT8dx8sdjSBxPns45VrVvzRLuvKMN1g4zDlw7iNC/I0uejLXHAseGmrL74dmf/me47PYLG2oGXP8WJ0Z/OVEVsDqTDmse6IalxbxwXgV/p4Ip7H7V/oL1pSo0A6bisfVaS/VbVn3TB9wK7MBNRxH5X7Tofwy1Bqx/bBUm/jBVtF2pSs2A2aHzEgd6vrUCR7cNIz2dLjVG3npKt3VLk+yUMIJPTOdtk1voeqsTerMegZ9P5BZr/l6RSoyK7XRd6sRFT/ah4wstyu5qHbnpKjfMzWb4vuMv66+eTQ2I7BN7/cLSTFZFEp784xTGfx9E200eeK9rRMvHmxA/llDnOrIvhtihOJIjM8oO5yMTOrNI9xMeTD8XRujZ0orPLmarZq0NQ1t9ZS1OsUYVAWaH8SMJHLn1OIzbT8D19jrUvd4huVYRkdwBM8KeZhMZJGQB9l0+oKpov0k4jtxyLLdpwe+UbjqSxvhvggXblFtRMWAO0HilC5Ny/kZ/MaEyy0gkrN0WWNpNMMl3Y51RyIROMS3WU7otN4p0/yXSLcOskeS4L6vH+OOTyEQz7GJJSTPg2cyssCvIFrOi+852dG2bxdTfQkp7UgKp8RTCzP/JPy/Phxpg9phw+ObypOsW9mWo0YMavfEK17xO40MJ7HvPoXllpX5oBhwRpeF+Vz1GfjCK5y8bQNMH3XDLlqbZKLXldCLplhubMPWPkCxI6bPLyZNkDH9XFFuOem18r0vx8EoIiGZqSVbU99BKJHxJHL1j+KVtaXAaSpqo5o82YsUXW7F/02GEdxe3u4Uk1XJDEzo+34LArnEcvX24ULOC5ZolPCPbNR3OwNZjxdqHexDaHcHYryYRfHIapSxy8/VNaiJ9D66cPyE5mkNf8mH8t8WVkvfaRgV27NeTOLpVO1gOqhlw57Y20TyQ7XwQta+ww3NNA7q3twPbRXOLaaJfGz0QU2ZpZiwFnrOsc+HbcRIW4eG5qWa1VdzLOqWFc8sXfqdm77y9VZnDwduOAxW6zpoBk2X5HxpD7HBC5cDPJkAHgCaJ271mDQE4lcPPSVODD33Zp+Y/9sjkQhzo/GqbAjv198IOAZUV200+MSWmUJTdEpS1ZsB6oYR1r3PAR1OTmFtm2mRm/845PKSNjIDQLKWLmRLZKVyc4F9DmE3mF5n73fXo/no7pp4O4/BnBGypc7NoSecX5Oi++RXFftWssanzaxNp5ktkV2RaZF3xwUS+JqrM8bIamJtMmPxTfoeA9LXnrg7Fxg6Jg5GPtRXsvEBFRYBpDiytJqx/fBVW/7BbiIGYJYf2rlyX1qmQUPCp0KLp1b+pFj13dyK8J4qBLUMFd8CiP5Yo0Lyl2V9IbChdOu+HG+ERJ6B3RydIIaP9MdBO53LpjFDCdEy2a1oIi7Asavish+UWwFPPhBcxKOdrHei9p1M5CgdvGEKG/69Sqggwx85IcG7kvoDKjFbWbXSg9mI7yIxMwqYKpeHv+TH8bb9iapZ2M4bvme8t1b7SjtX3dSmFePBjg2qcQn1VUl4xYA7W+kkPxn8XlChjVOXsBEhCCMbUYFBcmgxLp5eIpjgRdC2ZGLBjJJP2O5uo5Vff3yXmLYmDHxlEOrQEdZztdMGnZsDcunrhtrY+K1rFPWy72avCqgTu3zmmuueWje4v7rdyO9M9TAXn1K59vQ2rf9SNpH8GB64bREr66NreJto5JErt1KIsmL/mn5o1Db2cxve51Lnb88Z+HL9rBHQoaKrKTVaJeDJMlAXCxWNsKzWZUsFBOiBcTM9VDaLUqnd+OT/NXJpMad2uXuUx+Xb4MbprYs5cGKS3Mm1kyxaPxLW92LOxXzkdpKgZCcT3X30EtOEdn2uG+531GH1USMttvnLXsax2miVMMmEQHxVyJru+0oYNT6/FCqF8zlc71JVKOaO6xb7S3OglINi3c6UyOQz70nZTL9RtrFXnW0UzNc+w+Aw0S3jdI70wiiv4whWHVNjFc3UDGLplNJPnOz4YVxqW3hS3KJlWRkxRTAgIz7VZ7PeGp9bC//AYGJjjzUX/NYOKc3OqZrmT4tWMU6hqrwQKSSVLuZ3FIc6v1ay07HKHxNsG2lNGLJhpX2lOal9uVwE9m3Dr7CJkh8tyapINpqb3u9ViHNh85CWwLOd9FNOEKMHMNzvUndUZBUzz0nB5vYAexUxg7hKJPHhayD9zbuKtITW6wW5QJol11M5MGeHhND2xQ/mpp3dzA8jbddQNVUwVnRBuuwseXQUS+9xIxMJ5qavRibRyD7k46uLs4hrZHWkcvH5QuZIL/2PyGNH1tTZ0bhU39DQkzVuac6CjTm3NM5a4tRl0yEkg6CwU81MZC4seiOPF7cNy03DKThtq9UpRcbszAso0fK8fzeLwVztVBJhOPUOsPKd0zBljbvuUV51JKibFpeUszt0Pp9UlOFkVo5cj3w+Iz2xD/ZudKi5FnWDpNKu75WRgBv4Hx1SmxvZuPksAZ1edUmUmlXReYodDuDQBcCG4NXlBXiiRZjISEpEFCogtDwmhoeNRbIcU6ktLeUUSVgPI6VchF9Gm4f9GFWvKMifWk0AY3RKXrpcnD1kuLWaLsWWaqyyl1DLZarTVDJhPEwiC1JABcm67hDxvGH9sEr67T3k+dNZnhBczV5LocFDLV9M15Dw0a+ngn6fRKDbUWGfAnjf0K2IQeV4IhXhHVUtiirokhsXbwlxvqhr9a2ZaC588jDwwiqSvMikuAiBHnue//dNexeIY5Txxb2BRs6UUaAbMwUgm2m+Z/6hlUpQXH7doftQib0bsFzKAUKsCepZWswr3HrvzBIJ/WRz6WQpY/rciwNlBtT5b0lv1ci714C6hY8AgAUkME8nIlDxboo3nBd1SQrHZ+eX7XBLg3A5LPkwTJ4HMi45BakIepokyo4NBIsJLbl52a3nulDu2lu9VA6xl0DPZVrOWPpOTrcbYy4CrsYpncx/LEj6bpVONuS1LuBqreDb3cd5J+P/6CmKADRT0HgAAAABJRU5ErkJggg==;" vertex="1" parent="1">
          <mxGeometry x="420" y="270" width="60" height="60" as="geometry" />
        </mxCell>
        <mxCell id="ssQ_9IG4hAZFRehCgyNh-18" value="" style="endArrow=classic;html=1;rounded=0;exitX=0.5;exitY=0;exitDx=0;exitDy=0;entryX=0.5;entryY=1;entryDx=0;entryDy=0;" edge="1" parent="1" source="ssQ_9IG4hAZFRehCgyNh-5" target="ssQ_9IG4hAZFRehCgyNh-17">
          <mxGeometry width="50" height="50" relative="1" as="geometry">
            <mxPoint x="450" y="400" as="sourcePoint" />
            <mxPoint x="500" y="350" as="targetPoint" />
          </mxGeometry>
        </mxCell>
      </root>
    </mxGraphModel>
  </diagram>
</mxfile>
